<svg width="400" height="33" viewBox="0 0 400 33" fill="none" xmlns="http://www.w3.org/2000/svg">
<path fill-rule="evenodd" clip-rule="evenodd" d="M0 2.17678H6.14856C7.86345 2.17678 10.2475 2.35092 12.2552 3.74406C14.5974 5.35488 15.7268 8.14116 15.7268 10.7968C15.7268 12.4947 15.3085 15.1069 13.0081 17.153C10.7913 19.1121 8.23982 19.4169 6.19033 19.4169H4.26638V31.215H0V2.17678ZM4.26638 6.26913V15.3245H6.19033C9.87105 15.3245 11.6278 13.4525 11.6278 10.7533C11.6278 9.14248 11.0004 6.26913 6.14856 6.26913H4.26638ZM31.2304 2.17678H35.4967V27.0356H43.6947V31.215H31.2304V2.17678ZM78.6058 31.215L75.6779 24.2058H63.7574L60.7042 31.215H56.1032L69.9896 0.478888L83.2067 31.215H78.6058ZM65.5142 20.0264H73.9631L69.8222 10.1873L65.5142 20.0264ZM110.338 6.3562H103.939V31.215H99.6724V6.3562H93.2729V2.17678H110.338V6.3562ZM125.256 2.17678H129.522V31.215H125.256V2.17678ZM151.635 31.215H147.368V0.217678L167.612 22.2902V2.17678H171.879V33L151.635 10.9274V31.215ZM189.725 2.17678H193.991V19.6781C193.991 21.2454 194.033 23.1609 194.869 24.6847C195.706 26.1649 197.588 27.6886 200.056 27.6886C202.524 27.6886 204.406 26.1649 205.242 24.6847C206.079 23.1609 206.121 21.2454 206.121 19.6781V2.17678H210.387V20.8536C210.387 23.161 209.927 25.9472 207.794 28.3852C206.33 30.0396 203.862 31.781 200.056 31.781C196.25 31.781 193.782 30.0396 192.318 28.3852C190.185 25.9472 189.725 23.161 189.725 20.8536V2.17678ZM231.746 31.215H227.396L233.252 0L242.956 22.5515L252.743 0L258.013 31.215H253.663L250.819 13.7137L242.705 32.5646L234.674 13.6702L231.746 31.215ZM295.685 3.74406V8.96833C292.59 6.05145 289.704 5.7467 288.114 5.7467C282.05 5.7467 277.95 10.405 277.95 16.8047C277.95 22.9433 282.217 27.6886 288.156 27.6886C291.502 27.6886 294.095 25.9037 295.685 24.3364V29.6042C292.882 31.3456 289.955 31.781 288.031 31.781C282.97 31.781 279.791 29.3865 278.16 27.7757C274.897 24.5976 273.684 20.8971 273.684 16.8047C273.684 11.4499 275.817 7.74934 278.16 5.44195C281.046 2.61214 284.392 1.65435 288.24 1.65435C290.791 1.65435 293.259 2.13324 295.685 3.74406ZM331.014 31.215L328.086 24.2058H316.166L313.113 31.215H308.512L322.398 0.478888L335.615 31.215H331.014ZM317.923 20.0264H326.372L322.231 10.1873L317.923 20.0264ZM350.282 2.17678H355.26C358.648 2.17678 360.823 2.61213 362.621 3.87467C365.674 6.00791 365.925 9.44722 365.925 10.7098C365.925 14.8892 363.458 17.9367 359.735 18.8074L368.435 31.215H363.29L355.301 19.3298H354.549V31.215H350.282V2.17678ZM354.549 6.26913V15.4987H355.887C357.058 15.4987 361.826 15.3681 361.826 10.7533C361.826 6.66095 358.104 6.26913 356.013 6.26913H354.549ZM399.247 6.53034L395.817 8.62005C395.566 7.96702 395.19 7.35752 394.563 6.79155C393.684 6.05145 392.764 5.7467 391.551 5.7467C388.958 5.7467 387.619 7.35752 387.619 9.22955C387.619 10.1003 387.912 11.624 390.631 12.7559L393.433 13.9314C398.578 16.1082 400 19.1557 400 22.4644C400 27.9934 396.236 31.781 391.007 31.781C387.787 31.781 385.863 30.5185 384.441 28.8641C382.935 27.1227 382.266 25.2071 382.098 23.2045L386.323 22.2467C386.323 23.6834 386.825 25.033 387.494 25.9472C388.289 26.9921 389.46 27.6886 391.133 27.6886C393.726 27.6886 395.734 25.7296 395.734 22.8127C395.734 19.8522 393.559 18.6332 391.718 17.8496L389.041 16.6741C386.741 15.6728 383.353 13.6702 383.353 9.31663C383.353 5.39842 386.281 1.65435 391.509 1.65435C394.521 1.65435 396.236 2.82982 397.114 3.61346C397.867 4.31003 398.662 5.31135 399.247 6.53034Z" fill="white"/>
<path fill-rule="evenodd" clip-rule="evenodd" d="M0 2.17678H6.14856C7.86345 2.17678 10.2475 2.35092 12.2552 3.74406C14.5974 5.35488 15.7268 8.14116 15.7268 10.7968C15.7268 12.4947 15.3085 15.1069 13.0081 17.153C10.7913 19.1121 8.23982 19.4169 6.19033 19.4169H4.26638V31.215H0V2.17678ZM4.26638 6.26913V15.3245H6.19033C9.87105 15.3245 11.6278 13.4525 11.6278 10.7533C11.6278 9.14248 11.0004 6.26913 6.14856 6.26913H4.26638ZM31.2304 2.17678H35.4967V27.0356H43.6947V31.215H31.2304V2.17678ZM78.6058 31.215L75.6779 24.2058H63.7574L60.7042 31.215H56.1032L69.9896 0.478888L83.2067 31.215H78.6058ZM65.5142 20.0264H73.9631L69.8222 10.1873L65.5142 20.0264ZM110.338 6.3562H103.939V31.215H99.6724V6.3562H93.2729V2.17678H110.338V6.3562ZM125.256 2.17678H129.522V31.215H125.256V2.17678ZM151.635 31.215H147.368V0.217678L167.612 22.2902V2.17678H171.879V33L151.635 10.9274V31.215ZM189.725 2.17678H193.991V19.6781C193.991 21.2454 194.033 23.1609 194.869 24.6847C195.706 26.1649 197.588 27.6886 200.056 27.6886C202.524 27.6886 204.406 26.1649 205.242 24.6847C206.079 23.1609 206.121 21.2454 206.121 19.6781V2.17678H210.387V20.8536C210.387 23.161 209.927 25.9472 207.794 28.3852C206.33 30.0396 203.862 31.781 200.056 31.781C196.25 31.781 193.782 30.0396 192.318 28.3852C190.185 25.9472 189.725 23.161 189.725 20.8536V2.17678ZM231.746 31.215H227.396L233.252 0L242.956 22.5515L252.743 0L258.013 31.215H253.663L250.819 13.7137L242.705 32.5646L234.674 13.6702L231.746 31.215ZM295.685 3.74406V8.96833C292.59 6.05145 289.704 5.7467 288.114 5.7467C282.05 5.7467 277.95 10.405 277.95 16.8047C277.95 22.9433 282.217 27.6886 288.156 27.6886C291.502 27.6886 294.095 25.9037 295.685 24.3364V29.6042C292.882 31.3456 289.955 31.781 288.031 31.781C282.97 31.781 279.791 29.3865 278.16 27.7757C274.897 24.5976 273.684 20.8971 273.684 16.8047C273.684 11.4499 275.817 7.74934 278.16 5.44195C281.046 2.61214 284.392 1.65435 288.24 1.65435C290.791 1.65435 293.259 2.13324 295.685 3.74406ZM331.014 31.215L328.086 24.2058H316.166L313.113 31.215H308.512L322.398 0.478888L335.615 31.215H331.014ZM317.923 20.0264H326.372L322.231 10.1873L317.923 20.0264ZM350.282 2.17678H355.26C358.648 2.17678 360.823 2.61213 362.621 3.87467C365.674 6.00791 365.925 9.44722 365.925 10.7098C365.925 14.8892 363.458 17.9367 359.735 18.8074L368.435 31.215H363.29L355.301 19.3298H354.549V31.215H350.282V2.17678ZM354.549 6.26913V15.4987H355.887C357.058 15.4987 361.826 15.3681 361.826 10.7533C361.826 6.66095 358.104 6.26913 356.013 6.26913H354.549ZM399.247 6.53034L395.817 8.62005C395.566 7.96702 395.19 7.35752 394.563 6.79155C393.684 6.05145 392.764 5.7467 391.551 5.7467C388.958 5.7467 387.619 7.35752 387.619 9.22955C387.619 10.1003 387.912 11.624 390.631 12.7559L393.433 13.9314C398.578 16.1082 400 19.1557 400 22.4644C400 27.9934 396.236 31.781 391.007 31.781C387.787 31.781 385.863 30.5185 384.441 28.8641C382.935 27.1227 382.266 25.2071 382.098 23.2045L386.323 22.2467C386.323 23.6834 386.825 25.033 387.494 25.9472C388.289 26.9921 389.46 27.6886 391.133 27.6886C393.726 27.6886 395.734 25.7296 395.734 22.8127C395.734 19.8522 393.559 18.6332 391.718 17.8496L389.041 16.6741C386.741 15.6728 383.353 13.6702 383.353 9.31663C383.353 5.39842 386.281 1.65435 391.509 1.65435C394.521 1.65435 396.236 2.82982 397.114 3.61346C397.867 4.31003 398.662 5.31135 399.247 6.53034Z" fill="black"/>
</svg>
